<?xml version="1.0" encoding="UTF-8" standalone="no"?>
<!DOCTYPE svg PUBLIC "-//W3C//DTD SVG 1.1//EN"
 "http://www.w3.org/Graphics/SVG/1.1/DTD/svg11.dtd">
<!-- Generated by graphviz version 2.40.1 (20161225.0304)
 -->
<!-- Title: dependencies Pages: 1 -->
<svg width="504pt" height="211pt"
 viewBox="0.00 0.00 504.00 211.00" xmlns="http://www.w3.org/2000/svg" xmlns:xlink="http://www.w3.org/1999/xlink">
<g id="graph0" class="graph" transform="scale(1 1) rotate(0) translate(4 207)">
<title>dependencies</title>
<polygon fill="#ffffff" stroke="transparent" points="-4,4 -4,-207 500,-207 500,4 -4,4"/>
<text text-anchor="start" x="227.0091" y="-42.4" font-family="sans-serif" font-weight="bold" font-size="14.00" fill="#000000">Legend</text>
<polygon fill="#ffffb3" stroke="transparent" points="14,-10 14,-30 34,-30 34,-10 14,-10"/>
<text text-anchor="start" x="37.629" y="-15.4" font-family="sans-serif" font-size="14.00" fill="#000000"> &#160;Declarations</text>
<polygon fill="#8dd3c7" stroke="transparent" points="127,-10 127,-30 147,-30 147,-10 127,-10"/>
<text text-anchor="start" x="150.7251" y="-15.4" font-family="sans-serif" font-size="14.00" fill="#000000"> &#160;Module</text>
<polygon fill="#80b1d3" stroke="transparent" points="213,-10 213,-30 233,-30 233,-10 213,-10"/>
<text text-anchor="start" x="236.7812" y="-15.4" font-family="sans-serif" font-size="14.00" fill="#000000"> &#160;Bootstrap</text>
<polygon fill="#fdb462" stroke="transparent" points="310,-10 310,-30 330,-30 330,-10 310,-10"/>
<text text-anchor="start" x="333.6732" y="-15.4" font-family="sans-serif" font-size="14.00" fill="#000000"> &#160;Providers</text>
<polygon fill="#fb8072" stroke="transparent" points="406,-10 406,-30 426,-30 426,-10 406,-10"/>
<text text-anchor="start" x="429.7258" y="-15.4" font-family="sans-serif" font-size="14.00" fill="#000000"> &#160;Exports</text>
<g id="clust1" class="cluster">
<title>cluster_UserModule</title>
<polygon fill="none" stroke="#000000" stroke-dasharray="1,5" points="97,-70 97,-195 399,-195 399,-70 97,-70"/>
</g>
<g id="clust2" class="cluster">
<title>cluster_UserModule_declarations</title>
<polygon fill="none" stroke="#000000" points="261,-78 261,-130 391,-130 391,-78 261,-78"/>
</g>
<g id="clust4" class="cluster">
<title>cluster_UserModule_imports</title>
<polygon fill="none" stroke="#000000" points="105,-78 105,-130 253,-130 253,-78 105,-78"/>
</g>
<!-- LoginComponent -->
<g id="node1" class="node">
<title>LoginComponent</title>
<polygon fill="#ffffb3" stroke="#000000" points="383.2758,-122 268.7242,-122 268.7242,-86 383.2758,-86 383.2758,-122"/>
<text text-anchor="middle" x="326" y="-99.8" font-family="Times,serif" font-size="14.00" fill="#000000">LoginComponent</text>
</g>
<!-- UserModule -->
<g id="node2" class="node">
<title>UserModule</title>
<polygon fill="#8dd3c7" stroke="#000000" points="294.9762,-187 291.9762,-191 270.9762,-191 267.9762,-187 209.0238,-187 209.0238,-151 294.9762,-151 294.9762,-187"/>
<text text-anchor="middle" x="252" y="-164.8" font-family="Times,serif" font-size="14.00" fill="#000000">UserModule</text>
</g>
<!-- LoginComponent&#45;&gt;UserModule -->
<g id="edge1" class="edge">
<title>LoginComponent&#45;&gt;UserModule</title>
<path fill="none" stroke="#000000" d="M281.8002,-122.1061C281.8002,-122.1061 281.8002,-140.991 281.8002,-140.991"/>
<polygon fill="#000000" stroke="#000000" points="278.3002,-140.9909 281.8002,-150.991 285.3002,-140.991 278.3002,-140.9909"/>
</g>
<!-- UserRoutingModule -->
<g id="node3" class="node">
<title>UserRoutingModule</title>
<polygon fill="#8dd3c7" stroke="#000000" points="244.594,-122 241.594,-126 220.594,-126 217.594,-122 113.406,-122 113.406,-86 244.594,-86 244.594,-122"/>
<text text-anchor="middle" x="179" y="-99.8" font-family="Times,serif" font-size="14.00" fill="#000000">UserRoutingModule</text>
</g>
<!-- UserRoutingModule&#45;&gt;UserModule -->
<g id="edge2" class="edge">
<title>UserRoutingModule&#45;&gt;UserModule</title>
<path fill="none" stroke="#000000" d="M226.7795,-122.1061C226.7795,-122.1061 226.7795,-140.991 226.7795,-140.991"/>
<polygon fill="#000000" stroke="#000000" points="223.2795,-140.9909 226.7795,-150.991 230.2795,-140.991 223.2795,-140.9909"/>
</g>
</g>
</svg>
