<?xml version="1.0" encoding="UTF-8" standalone="no"?>
<!DOCTYPE svg PUBLIC "-//W3C//DTD SVG 1.1//EN"
 "http://www.w3.org/Graphics/SVG/1.1/DTD/svg11.dtd">
<!-- Generated by graphviz version 2.40.1 (20161225.0304)
 -->
<!-- Title: dependencies Pages: 1 -->
<svg width="1993pt" height="211pt"
 viewBox="0.00 0.00 1993.00 211.00" xmlns="http://www.w3.org/2000/svg" xmlns:xlink="http://www.w3.org/1999/xlink">
<g id="graph0" class="graph" transform="scale(1 1) rotate(0) translate(4 207)">
<title>dependencies</title>
<polygon fill="#ffffff" stroke="transparent" points="-4,4 -4,-207 1989,-207 1989,4 -4,4"/>
<text text-anchor="start" x="971.5091" y="-42.4" font-family="sans-serif" font-weight="bold" font-size="14.00" fill="#000000">Legend</text>
<polygon fill="#ffffb3" stroke="transparent" points="758.5,-10 758.5,-30 778.5,-30 778.5,-10 758.5,-10"/>
<text text-anchor="start" x="782.129" y="-15.4" font-family="sans-serif" font-size="14.00" fill="#000000"> &#160;Declarations</text>
<polygon fill="#8dd3c7" stroke="transparent" points="871.5,-10 871.5,-30 891.5,-30 891.5,-10 871.5,-10"/>
<text text-anchor="start" x="895.2251" y="-15.4" font-family="sans-serif" font-size="14.00" fill="#000000"> &#160;Module</text>
<polygon fill="#80b1d3" stroke="transparent" points="957.5,-10 957.5,-30 977.5,-30 977.5,-10 957.5,-10"/>
<text text-anchor="start" x="981.2812" y="-15.4" font-family="sans-serif" font-size="14.00" fill="#000000"> &#160;Bootstrap</text>
<polygon fill="#fdb462" stroke="transparent" points="1054.5,-10 1054.5,-30 1074.5,-30 1074.5,-10 1054.5,-10"/>
<text text-anchor="start" x="1078.1732" y="-15.4" font-family="sans-serif" font-size="14.00" fill="#000000"> &#160;Providers</text>
<polygon fill="#fb8072" stroke="transparent" points="1150.5,-10 1150.5,-30 1170.5,-30 1170.5,-10 1150.5,-10"/>
<text text-anchor="start" x="1174.2258" y="-15.4" font-family="sans-serif" font-size="14.00" fill="#000000"> &#160;Exports</text>
<g id="clust1" class="cluster">
<title>cluster_CoreModule</title>
<polygon fill="none" stroke="#000000" stroke-dasharray="1,5" points="8,-70 8,-195 1977,-195 1977,-70 8,-70"/>
</g>
<g id="clust2" class="cluster">
<title>cluster_CoreModule_declarations</title>
<polygon fill="none" stroke="#000000" points="1411,-78 1411,-130 1969,-130 1969,-78 1411,-78"/>
</g>
<g id="clust10" class="cluster">
<title>cluster_CoreModule_providers</title>
<polygon fill="none" stroke="#000000" points="16,-78 16,-130 1403,-130 1403,-78 16,-78"/>
</g>
<!-- FooterComponent -->
<g id="node1" class="node">
<title>FooterComponent</title>
<polygon fill="#ffffb3" stroke="#000000" points="1960.8809,-122 1843.1191,-122 1843.1191,-86 1960.8809,-86 1960.8809,-122"/>
<text text-anchor="middle" x="1902" y="-99.8" font-family="Times,serif" font-size="14.00" fill="#000000">FooterComponent</text>
</g>
<!-- CoreModule -->
<g id="node5" class="node">
<title>CoreModule</title>
<polygon fill="#8dd3c7" stroke="#000000" points="1145.2619,-187 1142.2619,-191 1121.2619,-191 1118.2619,-187 1058.7381,-187 1058.7381,-151 1145.2619,-151 1145.2619,-187"/>
<text text-anchor="middle" x="1102" y="-164.8" font-family="Times,serif" font-size="14.00" fill="#000000">CoreModule</text>
</g>
<!-- FooterComponent&#45;&gt;CoreModule -->
<g id="edge1" class="edge">
<title>FooterComponent&#45;&gt;CoreModule</title>
<path fill="none" stroke="#000000" d="M1902,-122.0908C1902,-145.1328 1902,-182 1902,-182 1902,-182 1155.2951,-182 1155.2951,-182"/>
<polygon fill="#000000" stroke="#000000" points="1155.2952,-178.5001 1145.2951,-182 1155.2951,-185.5001 1155.2952,-178.5001"/>
</g>
<!-- HeaderComponent -->
<g id="node2" class="node">
<title>HeaderComponent</title>
<polygon fill="#ffffb3" stroke="#000000" points="1824.7437,-122 1703.2563,-122 1703.2563,-86 1824.7437,-86 1824.7437,-122"/>
<text text-anchor="middle" x="1764" y="-99.8" font-family="Times,serif" font-size="14.00" fill="#000000">HeaderComponent</text>
</g>
<!-- HeaderComponent&#45;&gt;CoreModule -->
<g id="edge2" class="edge">
<title>HeaderComponent&#45;&gt;CoreModule</title>
<path fill="none" stroke="#000000" d="M1764,-122.2843C1764,-143.3211 1764,-175 1764,-175 1764,-175 1155.4357,-175 1155.4357,-175"/>
<polygon fill="#000000" stroke="#000000" points="1155.4357,-171.5001 1145.4357,-175 1155.4356,-178.5001 1155.4357,-171.5001"/>
</g>
<!-- NotFoundComponent -->
<g id="node3" class="node">
<title>NotFoundComponent</title>
<polygon fill="#ffffb3" stroke="#000000" points="1685.1122,-122 1546.8878,-122 1546.8878,-86 1685.1122,-86 1685.1122,-122"/>
<text text-anchor="middle" x="1616" y="-99.8" font-family="Times,serif" font-size="14.00" fill="#000000">NotFoundComponent</text>
</g>
<!-- NotFoundComponent&#45;&gt;CoreModule -->
<g id="edge3" class="edge">
<title>NotFoundComponent&#45;&gt;CoreModule</title>
<path fill="none" stroke="#000000" d="M1616,-122.1061C1616,-141.3391 1616,-169 1616,-169 1616,-169 1155.3804,-169 1155.3804,-169"/>
<polygon fill="#000000" stroke="#000000" points="1155.3804,-165.5001 1145.3804,-169 1155.3803,-172.5001 1155.3804,-165.5001"/>
</g>
<!-- ShellComponent -->
<g id="node4" class="node">
<title>ShellComponent</title>
<polygon fill="#ffffb3" stroke="#000000" points="1529.1109,-122 1418.8891,-122 1418.8891,-86 1529.1109,-86 1529.1109,-122"/>
<text text-anchor="middle" x="1474" y="-99.8" font-family="Times,serif" font-size="14.00" fill="#000000">ShellComponent</text>
</g>
<!-- ShellComponent&#45;&gt;CoreModule -->
<g id="edge4" class="edge">
<title>ShellComponent&#45;&gt;CoreModule</title>
<path fill="none" stroke="#000000" d="M1474,-122.0225C1474,-139.3734 1474,-163 1474,-163 1474,-163 1155.4012,-163 1155.4012,-163"/>
<polygon fill="#000000" stroke="#000000" points="1155.4012,-159.5001 1145.4012,-163 1155.4011,-166.5001 1155.4012,-159.5001"/>
</g>
<!-- ApiPrefixInterceptor -->
<g id="node6" class="node">
<title>ApiPrefixInterceptor</title>
<ellipse fill="#fdb462" stroke="#000000" cx="1304" cy="-104" rx="91.4481" ry="18"/>
<text text-anchor="middle" x="1304" y="-99.8" font-family="Times,serif" font-size="14.00" fill="#000000">ApiPrefixInterceptor</text>
</g>
<!-- ApiPrefixInterceptor&#45;&gt;CoreModule -->
<g id="edge5" class="edge">
<title>ApiPrefixInterceptor&#45;&gt;CoreModule</title>
<path fill="none" stroke="#000000" d="M1304,-122.2396C1304,-137.5706 1304,-157 1304,-157 1304,-157 1155.3341,-157 1155.3341,-157"/>
<polygon fill="#000000" stroke="#000000" points="1155.3341,-153.5001 1145.3341,-157 1155.334,-160.5001 1155.3341,-153.5001"/>
</g>
<!-- AuthenticationGuard -->
<g id="node7" class="node">
<title>AuthenticationGuard</title>
<ellipse fill="#fdb462" stroke="#000000" cx="1102" cy="-104" rx="92.617" ry="18"/>
<text text-anchor="middle" x="1102" y="-99.8" font-family="Times,serif" font-size="14.00" fill="#000000">AuthenticationGuard</text>
</g>
<!-- AuthenticationGuard&#45;&gt;CoreModule -->
<g id="edge6" class="edge">
<title>AuthenticationGuard&#45;&gt;CoreModule</title>
<path fill="none" stroke="#000000" d="M1102,-122.1061C1102,-122.1061 1102,-140.991 1102,-140.991"/>
<polygon fill="#000000" stroke="#000000" points="1098.5001,-140.9909 1102,-150.991 1105.5001,-140.991 1098.5001,-140.9909"/>
</g>
<!-- AuthenticationService -->
<g id="node8" class="node">
<title>AuthenticationService</title>
<ellipse fill="#fdb462" stroke="#000000" cx="894" cy="-104" rx="97.2683" ry="18"/>
<text text-anchor="middle" x="894" y="-99.8" font-family="Times,serif" font-size="14.00" fill="#000000">AuthenticationService</text>
</g>
<!-- AuthenticationService&#45;&gt;CoreModule -->
<g id="edge7" class="edge">
<title>AuthenticationService&#45;&gt;CoreModule</title>
<path fill="none" stroke="#000000" d="M894,-122.2396C894,-137.5706 894,-157 894,-157 894,-157 1048.6496,-157 1048.6496,-157"/>
<polygon fill="#000000" stroke="#000000" points="1048.6496,-160.5001 1058.6496,-157 1048.6495,-153.5001 1048.6496,-160.5001"/>
</g>
<!-- CacheInterceptor -->
<g id="node9" class="node">
<title>CacheInterceptor</title>
<ellipse fill="#fdb462" stroke="#000000" cx="701" cy="-104" rx="77.5453" ry="18"/>
<text text-anchor="middle" x="701" y="-99.8" font-family="Times,serif" font-size="14.00" fill="#000000">CacheInterceptor</text>
</g>
<!-- CacheInterceptor&#45;&gt;CoreModule -->
<g id="edge8" class="edge">
<title>CacheInterceptor&#45;&gt;CoreModule</title>
<path fill="none" stroke="#000000" d="M701,-122.0225C701,-139.3734 701,-163 701,-163 701,-163 1048.705,-163 1048.705,-163"/>
<polygon fill="#000000" stroke="#000000" points="1048.705,-166.5001 1058.705,-163 1048.7049,-159.5001 1048.705,-166.5001"/>
</g>
<!-- ErrorHandlerInterceptor -->
<g id="node10" class="node">
<title>ErrorHandlerInterceptor</title>
<ellipse fill="#fdb462" stroke="#000000" cx="501" cy="-104" rx="104.7327" ry="18"/>
<text text-anchor="middle" x="501" y="-99.8" font-family="Times,serif" font-size="14.00" fill="#000000">ErrorHandlerInterceptor</text>
</g>
<!-- ErrorHandlerInterceptor&#45;&gt;CoreModule -->
<g id="edge9" class="edge">
<title>ErrorHandlerInterceptor&#45;&gt;CoreModule</title>
<path fill="none" stroke="#000000" d="M501,-122.1061C501,-141.3391 501,-169 501,-169 501,-169 1048.2935,-169 1048.2935,-169"/>
<polygon fill="#000000" stroke="#000000" points="1048.2935,-172.5001 1058.2935,-169 1048.2934,-165.5001 1048.2935,-172.5001"/>
</g>
<!-- HttpCacheService -->
<g id="node11" class="node">
<title>HttpCacheService</title>
<ellipse fill="#fdb462" stroke="#000000" cx="297" cy="-104" rx="81.0763" ry="18"/>
<text text-anchor="middle" x="297" y="-99.8" font-family="Times,serif" font-size="14.00" fill="#000000">HttpCacheService</text>
</g>
<!-- HttpCacheService&#45;&gt;CoreModule -->
<g id="edge10" class="edge">
<title>HttpCacheService&#45;&gt;CoreModule</title>
<path fill="none" stroke="#000000" d="M297,-122.2843C297,-143.3211 297,-175 297,-175 297,-175 1048.7197,-175 1048.7197,-175"/>
<polygon fill="#000000" stroke="#000000" points="1048.7197,-178.5001 1058.7197,-175 1048.7197,-171.5001 1048.7197,-178.5001"/>
</g>
<!-- NotificationService -->
<g id="node12" class="node">
<title>NotificationService</title>
<ellipse fill="#fdb462" stroke="#000000" cx="111" cy="-104" rx="86.8107" ry="18"/>
<text text-anchor="middle" x="111" y="-99.8" font-family="Times,serif" font-size="14.00" fill="#000000">NotificationService</text>
</g>
<!-- NotificationService&#45;&gt;CoreModule -->
<g id="edge11" class="edge">
<title>NotificationService&#45;&gt;CoreModule</title>
<path fill="none" stroke="#000000" d="M111,-122.0908C111,-145.1328 111,-182 111,-182 111,-182 1048.4605,-182 1048.4605,-182"/>
<polygon fill="#000000" stroke="#000000" points="1048.4606,-185.5001 1058.4605,-182 1048.4605,-178.5001 1048.4606,-185.5001"/>
</g>
</g>
</svg>
