<?xml version="1.0" encoding="UTF-8" standalone="no"?>
<!DOCTYPE svg PUBLIC "-//W3C//DTD SVG 1.1//EN"
 "http://www.w3.org/Graphics/SVG/1.1/DTD/svg11.dtd">
<!-- Generated by graphviz version 2.40.1 (20161225.0304)
 -->
<!-- Title: dependencies Pages: 1 -->
<svg width="2303pt" height="298pt"
 viewBox="0.00 0.00 2303.00 298.00" xmlns="http://www.w3.org/2000/svg" xmlns:xlink="http://www.w3.org/1999/xlink">
<g id="graph0" class="graph" transform="scale(1 1) rotate(0) translate(4 294)">
<title>dependencies</title>
<polygon fill="#ffffff" stroke="transparent" points="-4,4 -4,-294 2299,-294 2299,4 -4,4"/>
<text text-anchor="start" x="1126.5091" y="-42.4" font-family="sans-serif" font-weight="bold" font-size="14.00" fill="#000000">Legend</text>
<polygon fill="#ffffb3" stroke="transparent" points="913.5,-10 913.5,-30 933.5,-30 933.5,-10 913.5,-10"/>
<text text-anchor="start" x="937.129" y="-15.4" font-family="sans-serif" font-size="14.00" fill="#000000"> &#160;Declarations</text>
<polygon fill="#8dd3c7" stroke="transparent" points="1026.5,-10 1026.5,-30 1046.5,-30 1046.5,-10 1026.5,-10"/>
<text text-anchor="start" x="1050.2251" y="-15.4" font-family="sans-serif" font-size="14.00" fill="#000000"> &#160;Module</text>
<polygon fill="#80b1d3" stroke="transparent" points="1112.5,-10 1112.5,-30 1132.5,-30 1132.5,-10 1112.5,-10"/>
<text text-anchor="start" x="1136.2812" y="-15.4" font-family="sans-serif" font-size="14.00" fill="#000000"> &#160;Bootstrap</text>
<polygon fill="#fdb462" stroke="transparent" points="1209.5,-10 1209.5,-30 1229.5,-30 1229.5,-10 1209.5,-10"/>
<text text-anchor="start" x="1233.1732" y="-15.4" font-family="sans-serif" font-size="14.00" fill="#000000"> &#160;Providers</text>
<polygon fill="#fb8072" stroke="transparent" points="1305.5,-10 1305.5,-30 1325.5,-30 1325.5,-10 1305.5,-10"/>
<text text-anchor="start" x="1329.2258" y="-15.4" font-family="sans-serif" font-size="14.00" fill="#000000"> &#160;Exports</text>
<g id="clust7" class="cluster">
<title>cluster_BetCenterModule</title>
<polygon fill="none" stroke="#000000" stroke-dasharray="1,5" points="903,-146 903,-274 1457,-274 1457,-146 903,-146"/>
</g>
<g id="clust8" class="cluster">
<title>cluster_BetCenterModule_declarations</title>
<polygon fill="none" stroke="#000000" points="911,-154 911,-206 1043,-206 1043,-154 911,-154"/>
</g>
<g id="clust10" class="cluster">
<title>cluster_BetCenterModule_imports</title>
<polygon fill="none" stroke="#000000" points="1051,-154 1051,-206 1449,-206 1449,-154 1051,-154"/>
</g>
<g id="clust20" class="cluster">
<title>cluster_CoreModule</title>
<polygon fill="none" stroke="#000000" stroke-dasharray="1,5" points="8,-70 8,-138 1977,-138 1977,-70 8,-70"/>
</g>
<g id="clust21" class="cluster">
<title>cluster_CoreModule_declarations</title>
<polygon fill="none" stroke="#000000" points="1411,-78 1411,-130 1969,-130 1969,-78 1411,-78"/>
</g>
<g id="clust29" class="cluster">
<title>cluster_CoreModule_providers</title>
<polygon fill="none" stroke="#000000" points="16,-78 16,-130 1403,-130 1403,-78 16,-78"/>
</g>
<g id="clust30" class="cluster">
<title>cluster_SharedModule</title>
<polygon fill="none" stroke="#000000" stroke-dasharray="1,5" points="1465,-214 1465,-282 1765,-282 1765,-214 1465,-214"/>
</g>
<g id="clust31" class="cluster">
<title>cluster_SharedModule_declarations</title>
<polygon fill="none" stroke="#000000" points="1621,-222 1621,-274 1757,-274 1757,-222 1621,-222"/>
</g>
<g id="clust34" class="cluster">
<title>cluster_SharedModule_exports</title>
<polygon fill="none" stroke="#000000" points="1473,-222 1473,-274 1613,-274 1613,-222 1473,-222"/>
</g>
<g id="clust37" class="cluster">
<title>cluster_UserModule</title>
<polygon fill="none" stroke="#000000" stroke-dasharray="1,5" points="1985,-70 1985,-206 2287,-206 2287,-70 1985,-70"/>
</g>
<g id="clust38" class="cluster">
<title>cluster_UserModule_declarations</title>
<polygon fill="none" stroke="#000000" points="2149,-78 2149,-130 2279,-130 2279,-78 2149,-78"/>
</g>
<g id="clust40" class="cluster">
<title>cluster_UserModule_imports</title>
<polygon fill="none" stroke="#000000" points="1993,-78 1993,-130 2141,-130 2141,-78 1993,-78"/>
</g>
<!-- HomeComponent -->
<g id="node1" class="node">
<title>HomeComponent</title>
<polygon fill="#ffffb3" stroke="#000000" points="1034.5451,-198 919.4549,-198 919.4549,-162 1034.5451,-162 1034.5451,-198"/>
<text text-anchor="middle" x="977" y="-175.8" font-family="Times,serif" font-size="14.00" fill="#000000">HomeComponent</text>
</g>
<!-- BetCenterModule -->
<g id="node2" class="node">
<title>BetCenterModule</title>
<polygon fill="#8dd3c7" stroke="#000000" points="1231.309,-266 1228.309,-270 1207.309,-270 1204.309,-266 1114.691,-266 1114.691,-230 1231.309,-230 1231.309,-266"/>
<text text-anchor="middle" x="1173" y="-243.8" font-family="Times,serif" font-size="14.00" fill="#000000">BetCenterModule</text>
</g>
<!-- HomeComponent&#45;&gt;BetCenterModule -->
<g id="edge1" class="edge">
<title>HomeComponent&#45;&gt;BetCenterModule</title>
<path fill="none" stroke="#000000" d="M977,-198.2228C977,-218.3652 977,-248 977,-248 977,-248 1104.7242,-248 1104.7242,-248"/>
<polygon fill="#000000" stroke="#000000" points="1104.7242,-251.5001 1114.7242,-248 1104.7242,-244.5001 1104.7242,-251.5001"/>
</g>
<!-- BetCenterRoutingModule -->
<g id="node3" class="node">
<title>BetCenterRoutingModule</title>
<polygon fill="#8dd3c7" stroke="#000000" points="1324.927,-198 1321.927,-202 1300.927,-202 1297.927,-198 1163.073,-198 1163.073,-162 1324.927,-162 1324.927,-198"/>
<text text-anchor="middle" x="1244" y="-175.8" font-family="Times,serif" font-size="14.00" fill="#000000">BetCenterRoutingModule</text>
</g>
<!-- BetCenterRoutingModule&#45;&gt;BetCenterModule -->
<g id="edge2" class="edge">
<title>BetCenterRoutingModule&#45;&gt;BetCenterModule</title>
<path fill="none" stroke="#000000" d="M1197.2206,-198.2228C1197.2206,-198.2228 1197.2206,-219.7269 1197.2206,-219.7269"/>
<polygon fill="#000000" stroke="#000000" points="1193.7206,-219.7269 1197.2206,-229.7269 1200.7206,-219.727 1193.7206,-219.7269"/>
</g>
<!-- CoreModule -->
<g id="node4" class="node">
<title>CoreModule</title>
<polygon fill="#8dd3c7" stroke="#000000" points="1145.2619,-198 1142.2619,-202 1121.2619,-202 1118.2619,-198 1058.7381,-198 1058.7381,-162 1145.2619,-162 1145.2619,-198"/>
<text text-anchor="middle" x="1102" y="-175.8" font-family="Times,serif" font-size="14.00" fill="#000000">CoreModule</text>
</g>
<!-- CoreModule&#45;&gt;BetCenterModule -->
<g id="edge3" class="edge">
<title>CoreModule&#45;&gt;BetCenterModule</title>
<path fill="none" stroke="#000000" d="M1130.1132,-198.2228C1130.1132,-198.2228 1130.1132,-219.7269 1130.1132,-219.7269"/>
<polygon fill="#000000" stroke="#000000" points="1126.6133,-219.7269 1130.1132,-229.7269 1133.6133,-219.727 1126.6133,-219.7269"/>
</g>
<!-- SharedModule -->
<g id="node5" class="node">
<title>SharedModule</title>
<polygon fill="#8dd3c7" stroke="#000000" points="1441.4231,-198 1438.4231,-202 1417.4231,-202 1414.4231,-198 1342.5769,-198 1342.5769,-162 1441.4231,-162 1441.4231,-198"/>
<text text-anchor="middle" x="1392" y="-175.8" font-family="Times,serif" font-size="14.00" fill="#000000">SharedModule</text>
</g>
<!-- SharedModule&#45;&gt;BetCenterModule -->
<g id="edge4" class="edge">
<title>SharedModule&#45;&gt;BetCenterModule</title>
<path fill="none" stroke="#000000" d="M1392,-198.2228C1392,-218.3652 1392,-248 1392,-248 1392,-248 1241.4003,-248 1241.4003,-248"/>
<polygon fill="#000000" stroke="#000000" points="1241.4003,-244.5001 1231.4003,-248 1241.4003,-251.5001 1241.4003,-244.5001"/>
</g>
<!-- LoaderComponent  -->
<g id="node18" class="node">
<title>LoaderComponent </title>
<polygon fill="#fb8072" stroke="#000000" points="1605.4757,-266 1480.5243,-266 1480.5243,-230 1605.4757,-230 1605.4757,-266"/>
<text text-anchor="middle" x="1543" y="-243.8" font-family="Times,serif" font-size="14.00" fill="#000000">LoaderComponent </text>
</g>
<!-- SharedModule&#45;&gt;LoaderComponent  -->
<g id="edge17" class="edge">
<title>SharedModule&#45;&gt;LoaderComponent </title>
<path fill="none" stroke="#000000" stroke-dasharray="5,2" d="M1441.5235,-186C1471.8608,-186 1504.909,-186 1504.909,-186 1504.909,-186 1504.909,-219.7333 1504.909,-219.7333"/>
<polygon fill="#000000" stroke="#000000" points="1501.4091,-219.7333 1504.909,-229.7333 1508.4091,-219.7333 1501.4091,-219.7333"/>
</g>
<!-- FooterComponent -->
<g id="node6" class="node">
<title>FooterComponent</title>
<polygon fill="#ffffb3" stroke="#000000" points="1960.8809,-122 1843.1191,-122 1843.1191,-86 1960.8809,-86 1960.8809,-122"/>
<text text-anchor="middle" x="1902" y="-99.8" font-family="Times,serif" font-size="14.00" fill="#000000">FooterComponent</text>
</g>
<!-- FooterComponent&#45;&gt;CoreModule -->
<g id="edge5" class="edge">
<title>FooterComponent&#45;&gt;CoreModule</title>
<path fill="none" stroke="#000000" d="M1902,-122.0091C1902,-138.0494 1902,-159 1902,-159 1902,-159 1138.1507,-159 1138.1507,-159 1138.1507,-159 1138.1507,-159.292 1138.1507,-159.292"/>
<polygon fill="#000000" stroke="#000000" points="1134.651,-151.9198 1138.1507,-161.92 1141.651,-151.9201 1134.651,-151.9198"/>
</g>
<!-- HeaderComponent -->
<g id="node7" class="node">
<title>HeaderComponent</title>
<polygon fill="#ffffb3" stroke="#000000" points="1824.7437,-122 1703.2563,-122 1703.2563,-86 1824.7437,-86 1824.7437,-122"/>
<text text-anchor="middle" x="1764" y="-99.8" font-family="Times,serif" font-size="14.00" fill="#000000">HeaderComponent</text>
</g>
<!-- HeaderComponent&#45;&gt;CoreModule -->
<g id="edge6" class="edge">
<title>HeaderComponent&#45;&gt;CoreModule</title>
<path fill="none" stroke="#000000" d="M1726.3079,-122.1243C1726.3079,-136.7832 1726.3079,-155 1726.3079,-155 1726.3079,-155 1130.9205,-155 1130.9205,-155 1130.9205,-155 1130.9205,-155.6831 1130.9205,-155.6831"/>
<polygon fill="#000000" stroke="#000000" points="1127.4207,-151.8313 1130.9205,-161.8314 1134.4207,-151.8314 1127.4207,-151.8313"/>
</g>
<!-- NotFoundComponent -->
<g id="node8" class="node">
<title>NotFoundComponent</title>
<polygon fill="#ffffb3" stroke="#000000" points="1685.1122,-122 1546.8878,-122 1546.8878,-86 1685.1122,-86 1685.1122,-122"/>
<text text-anchor="middle" x="1616" y="-99.8" font-family="Times,serif" font-size="14.00" fill="#000000">NotFoundComponent</text>
</g>
<!-- NotFoundComponent&#45;&gt;CoreModule -->
<g id="edge7" class="edge">
<title>NotFoundComponent&#45;&gt;CoreModule</title>
<path fill="none" stroke="#000000" d="M1576.0907,-122.1467C1576.0907,-135.7395 1576.0907,-152 1576.0907,-152 1576.0907,-152 1123.6904,-152 1123.6904,-152 1123.6904,-152 1123.6904,-152.9793 1123.6904,-152.9793"/>
<polygon fill="#000000" stroke="#000000" points="1120.1905,-151.793 1123.6904,-161.793 1127.1905,-151.7931 1120.1905,-151.793"/>
</g>
<!-- ShellComponent -->
<g id="node9" class="node">
<title>ShellComponent</title>
<polygon fill="#ffffb3" stroke="#000000" points="1529.1109,-122 1418.8891,-122 1418.8891,-86 1529.1109,-86 1529.1109,-122"/>
<text text-anchor="middle" x="1474" y="-99.8" font-family="Times,serif" font-size="14.00" fill="#000000">ShellComponent</text>
</g>
<!-- ShellComponent&#45;&gt;CoreModule -->
<g id="edge8" class="edge">
<title>ShellComponent&#45;&gt;CoreModule</title>
<path fill="none" stroke="#000000" d="M1430.0779,-122.1505C1430.0779,-134.2708 1430.0779,-148 1430.0779,-148 1430.0779,-148 1116.4603,-148 1116.4603,-148 1116.4603,-148 1116.4603,-151.7566 1116.4603,-151.7566"/>
<polygon fill="#000000" stroke="#000000" points="1112.9604,-151.7566 1116.4603,-161.7566 1119.9604,-151.7566 1112.9604,-151.7566"/>
</g>
<!-- ApiPrefixInterceptor -->
<g id="node10" class="node">
<title>ApiPrefixInterceptor</title>
<ellipse fill="#fdb462" stroke="#000000" cx="1304" cy="-104" rx="91.4481" ry="18"/>
<text text-anchor="middle" x="1304" y="-99.8" font-family="Times,serif" font-size="14.00" fill="#000000">ApiPrefixInterceptor</text>
</g>
<!-- ApiPrefixInterceptor&#45;&gt;CoreModule -->
<g id="edge9" class="edge">
<title>ApiPrefixInterceptor&#45;&gt;CoreModule</title>
<path fill="none" stroke="#000000" d="M1268.6196,-120.7318C1268.6196,-131.6929 1268.6196,-144 1268.6196,-144 1268.6196,-144 1109.2301,-144 1109.2301,-144 1109.2301,-144 1109.2301,-151.5782 1109.2301,-151.5782"/>
<polygon fill="#000000" stroke="#000000" points="1105.7302,-151.5781 1109.2301,-161.5782 1112.7302,-151.5782 1105.7302,-151.5781"/>
</g>
<!-- AuthenticationGuard -->
<g id="node11" class="node">
<title>AuthenticationGuard</title>
<ellipse fill="#fdb462" stroke="#000000" cx="1102" cy="-104" rx="92.617" ry="18"/>
<text text-anchor="middle" x="1102" y="-99.8" font-family="Times,serif" font-size="14.00" fill="#000000">AuthenticationGuard</text>
</g>
<!-- AuthenticationGuard&#45;&gt;CoreModule -->
<g id="edge10" class="edge">
<title>AuthenticationGuard&#45;&gt;CoreModule</title>
<path fill="none" stroke="#000000" d="M1102,-122.0109C1102,-122.0109 1102,-151.855 1102,-151.855"/>
<polygon fill="#000000" stroke="#000000" points="1098.5001,-151.8549 1102,-161.855 1105.5001,-151.855 1098.5001,-151.8549"/>
</g>
<!-- AuthenticationService -->
<g id="node12" class="node">
<title>AuthenticationService</title>
<ellipse fill="#fdb462" stroke="#000000" cx="894" cy="-104" rx="97.2683" ry="18"/>
<text text-anchor="middle" x="894" y="-99.8" font-family="Times,serif" font-size="14.00" fill="#000000">AuthenticationService</text>
</g>
<!-- AuthenticationService&#45;&gt;CoreModule -->
<g id="edge11" class="edge">
<title>AuthenticationService&#45;&gt;CoreModule</title>
<path fill="none" stroke="#000000" d="M955.306,-118.0575C955.306,-122.3691 955.306,-126 955.306,-126 955.306,-126 1094.7699,-126 1094.7699,-126 1094.7699,-126 1094.7699,-151.7181 1094.7699,-151.7181"/>
<polygon fill="#000000" stroke="#000000" points="1091.27,-151.718 1094.7699,-161.7181 1098.27,-151.7181 1091.27,-151.718"/>
</g>
<!-- CacheInterceptor -->
<g id="node13" class="node">
<title>CacheInterceptor</title>
<ellipse fill="#fdb462" stroke="#000000" cx="701" cy="-104" rx="77.5453" ry="18"/>
<text text-anchor="middle" x="701" y="-99.8" font-family="Times,serif" font-size="14.00" fill="#000000">CacheInterceptor</text>
</g>
<!-- CacheInterceptor&#45;&gt;CoreModule -->
<g id="edge12" class="edge">
<title>CacheInterceptor&#45;&gt;CoreModule</title>
<path fill="none" stroke="#000000" d="M701,-122.0579C701,-126.4945 701,-130 701,-130 701,-130 1087.5397,-130 1087.5397,-130 1087.5397,-130 1087.5397,-151.9489 1087.5397,-151.9489"/>
<polygon fill="#000000" stroke="#000000" points="1084.0398,-151.9488 1087.5397,-161.9489 1091.0398,-151.9489 1084.0398,-151.9488"/>
</g>
<!-- ErrorHandlerInterceptor -->
<g id="node14" class="node">
<title>ErrorHandlerInterceptor</title>
<ellipse fill="#fdb462" stroke="#000000" cx="501" cy="-104" rx="104.7327" ry="18"/>
<text text-anchor="middle" x="501" y="-99.8" font-family="Times,serif" font-size="14.00" fill="#000000">ErrorHandlerInterceptor</text>
</g>
<!-- ErrorHandlerInterceptor&#45;&gt;CoreModule -->
<g id="edge13" class="edge">
<title>ErrorHandlerInterceptor&#45;&gt;CoreModule</title>
<path fill="none" stroke="#000000" d="M501,-122.2015C501,-128.028 501,-133 501,-133 501,-133 1080.3096,-133 1080.3096,-133 1080.3096,-133 1080.3096,-151.963 1080.3096,-151.963"/>
<polygon fill="#000000" stroke="#000000" points="1076.8097,-151.963 1080.3096,-161.963 1083.8097,-151.963 1076.8097,-151.963"/>
</g>
<!-- HttpCacheService -->
<g id="node15" class="node">
<title>HttpCacheService</title>
<ellipse fill="#fdb462" stroke="#000000" cx="297" cy="-104" rx="81.0763" ry="18"/>
<text text-anchor="middle" x="297" y="-99.8" font-family="Times,serif" font-size="14.00" fill="#000000">HttpCacheService</text>
</g>
<!-- HttpCacheService&#45;&gt;CoreModule -->
<g id="edge14" class="edge">
<title>HttpCacheService&#45;&gt;CoreModule</title>
<path fill="none" stroke="#000000" d="M297,-122.0449C297,-129.749 297,-137 297,-137 297,-137 1073.0795,-137 1073.0795,-137 1073.0795,-137 1073.0795,-151.5146 1073.0795,-151.5146"/>
<polygon fill="#000000" stroke="#000000" points="1069.5796,-151.5145 1073.0795,-161.5146 1076.5796,-151.5146 1069.5796,-151.5145"/>
</g>
<!-- NotificationService -->
<g id="node16" class="node">
<title>NotificationService</title>
<ellipse fill="#fdb462" stroke="#000000" cx="111" cy="-104" rx="86.8107" ry="18"/>
<text text-anchor="middle" x="111" y="-99.8" font-family="Times,serif" font-size="14.00" fill="#000000">NotificationService</text>
</g>
<!-- NotificationService&#45;&gt;CoreModule -->
<g id="edge15" class="edge">
<title>NotificationService&#45;&gt;CoreModule</title>
<path fill="none" stroke="#000000" d="M111,-122.0664C111,-131.4587 111,-141 111,-141 111,-141 1065.8493,-141 1065.8493,-141 1065.8493,-141 1065.8493,-151.8701 1065.8493,-151.8701"/>
<polygon fill="#000000" stroke="#000000" points="1062.3494,-151.8701 1065.8493,-161.8701 1069.3494,-151.8701 1062.3494,-151.8701"/>
</g>
<!-- LoaderComponent -->
<g id="node17" class="node">
<title>LoaderComponent</title>
<polygon fill="#ffffb3" stroke="#000000" points="1749.4748,-266 1628.5252,-266 1628.5252,-230 1749.4748,-230 1749.4748,-266"/>
<text text-anchor="middle" x="1689" y="-243.8" font-family="Times,serif" font-size="14.00" fill="#000000">LoaderComponent</text>
</g>
<!-- LoaderComponent&#45;&gt;SharedModule -->
<g id="edge16" class="edge">
<title>LoaderComponent&#45;&gt;SharedModule</title>
<path fill="none" stroke="#000000" d="M1656.7843,-229.7079C1656.7843,-207.7943 1656.7843,-174 1656.7843,-174 1656.7843,-174 1451.4933,-174 1451.4933,-174"/>
<polygon fill="#000000" stroke="#000000" points="1451.4933,-170.5001 1441.4933,-174 1451.4933,-177.5001 1451.4933,-170.5001"/>
</g>
<!-- LoginComponent -->
<g id="node19" class="node">
<title>LoginComponent</title>
<polygon fill="#ffffb3" stroke="#000000" points="2271.2758,-122 2156.7242,-122 2156.7242,-86 2271.2758,-86 2271.2758,-122"/>
<text text-anchor="middle" x="2214" y="-99.8" font-family="Times,serif" font-size="14.00" fill="#000000">LoginComponent</text>
</g>
<!-- UserModule -->
<g id="node20" class="node">
<title>UserModule</title>
<polygon fill="#8dd3c7" stroke="#000000" points="2182.9762,-198 2179.9762,-202 2158.9762,-202 2155.9762,-198 2097.0238,-198 2097.0238,-162 2182.9762,-162 2182.9762,-198"/>
<text text-anchor="middle" x="2140" y="-175.8" font-family="Times,serif" font-size="14.00" fill="#000000">UserModule</text>
</g>
<!-- LoginComponent&#45;&gt;UserModule -->
<g id="edge18" class="edge">
<title>LoginComponent&#45;&gt;UserModule</title>
<path fill="none" stroke="#000000" d="M2169.8002,-122.0109C2169.8002,-122.0109 2169.8002,-151.855 2169.8002,-151.855"/>
<polygon fill="#000000" stroke="#000000" points="2166.3002,-151.8549 2169.8002,-161.855 2173.3002,-151.855 2166.3002,-151.8549"/>
</g>
<!-- UserRoutingModule -->
<g id="node21" class="node">
<title>UserRoutingModule</title>
<polygon fill="#8dd3c7" stroke="#000000" points="2132.594,-122 2129.594,-126 2108.594,-126 2105.594,-122 2001.406,-122 2001.406,-86 2132.594,-86 2132.594,-122"/>
<text text-anchor="middle" x="2067" y="-99.8" font-family="Times,serif" font-size="14.00" fill="#000000">UserRoutingModule</text>
</g>
<!-- UserRoutingModule&#45;&gt;UserModule -->
<g id="edge19" class="edge">
<title>UserRoutingModule&#45;&gt;UserModule</title>
<path fill="none" stroke="#000000" d="M2114.7795,-122.0109C2114.7795,-122.0109 2114.7795,-151.855 2114.7795,-151.855"/>
<polygon fill="#000000" stroke="#000000" points="2111.2795,-151.8549 2114.7795,-161.855 2118.2795,-151.855 2111.2795,-151.8549"/>
</g>
</g>
</svg>
