<?xml version="1.0" encoding="UTF-8" standalone="no"?>
<!DOCTYPE svg PUBLIC "-//W3C//DTD SVG 1.1//EN"
 "http://www.w3.org/Graphics/SVG/1.1/DTD/svg11.dtd">
<!-- Generated by graphviz version 2.40.1 (20161225.0304)
 -->
<!-- Title: dependencies Pages: 1 -->
<svg width="579pt" height="211pt"
 viewBox="0.00 0.00 579.00 211.00" xmlns="http://www.w3.org/2000/svg" xmlns:xlink="http://www.w3.org/1999/xlink">
<g id="graph0" class="graph" transform="scale(1 1) rotate(0) translate(4 207)">
<title>dependencies</title>
<polygon fill="#ffffff" stroke="transparent" points="-4,4 -4,-207 575,-207 575,4 -4,4"/>
<text text-anchor="start" x="264.5091" y="-42.4" font-family="sans-serif" font-weight="bold" font-size="14.00" fill="#000000">Legend</text>
<polygon fill="#ffffb3" stroke="transparent" points="51.5,-10 51.5,-30 71.5,-30 71.5,-10 51.5,-10"/>
<text text-anchor="start" x="75.129" y="-15.4" font-family="sans-serif" font-size="14.00" fill="#000000"> &#160;Declarations</text>
<polygon fill="#8dd3c7" stroke="transparent" points="164.5,-10 164.5,-30 184.5,-30 184.5,-10 164.5,-10"/>
<text text-anchor="start" x="188.2251" y="-15.4" font-family="sans-serif" font-size="14.00" fill="#000000"> &#160;Module</text>
<polygon fill="#80b1d3" stroke="transparent" points="250.5,-10 250.5,-30 270.5,-30 270.5,-10 250.5,-10"/>
<text text-anchor="start" x="274.2812" y="-15.4" font-family="sans-serif" font-size="14.00" fill="#000000"> &#160;Bootstrap</text>
<polygon fill="#fdb462" stroke="transparent" points="347.5,-10 347.5,-30 367.5,-30 367.5,-10 347.5,-10"/>
<text text-anchor="start" x="371.1732" y="-15.4" font-family="sans-serif" font-size="14.00" fill="#000000"> &#160;Providers</text>
<polygon fill="#fb8072" stroke="transparent" points="443.5,-10 443.5,-30 463.5,-30 463.5,-10 443.5,-10"/>
<text text-anchor="start" x="467.2258" y="-15.4" font-family="sans-serif" font-size="14.00" fill="#000000"> &#160;Exports</text>
<g id="clust1" class="cluster">
<title>cluster_BetCenterModule</title>
<polygon fill="none" stroke="#000000" stroke-dasharray="1,5" points="8,-70 8,-195 563,-195 563,-70 8,-70"/>
</g>
<g id="clust2" class="cluster">
<title>cluster_BetCenterModule_declarations</title>
<polygon fill="none" stroke="#000000" points="423,-78 423,-130 555,-130 555,-78 423,-78"/>
</g>
<g id="clust4" class="cluster">
<title>cluster_BetCenterModule_imports</title>
<polygon fill="none" stroke="#000000" points="16,-78 16,-130 415,-130 415,-78 16,-78"/>
</g>
<!-- HomeComponent -->
<g id="node1" class="node">
<title>HomeComponent</title>
<polygon fill="#ffffb3" stroke="#000000" points="546.5451,-122 431.4549,-122 431.4549,-86 546.5451,-86 546.5451,-122"/>
<text text-anchor="middle" x="489" y="-99.8" font-family="Times,serif" font-size="14.00" fill="#000000">HomeComponent</text>
</g>
<!-- BetCenterModule -->
<g id="node2" class="node">
<title>BetCenterModule</title>
<polygon fill="#8dd3c7" stroke="#000000" points="313.309,-187 310.309,-191 289.309,-191 286.309,-187 196.691,-187 196.691,-151 313.309,-151 313.309,-187"/>
<text text-anchor="middle" x="255" y="-164.8" font-family="Times,serif" font-size="14.00" fill="#000000">BetCenterModule</text>
</g>
<!-- HomeComponent&#45;&gt;BetCenterModule -->
<g id="edge1" class="edge">
<title>HomeComponent&#45;&gt;BetCenterModule</title>
<path fill="none" stroke="#000000" d="M489,-122.1061C489,-141.3391 489,-169 489,-169 489,-169 323.4445,-169 323.4445,-169"/>
<polygon fill="#000000" stroke="#000000" points="323.4445,-165.5001 313.4445,-169 323.4444,-172.5001 323.4445,-165.5001"/>
</g>
<!-- BetCenterRoutingModule -->
<g id="node3" class="node">
<title>BetCenterRoutingModule</title>
<polygon fill="#8dd3c7" stroke="#000000" points="406.927,-122 403.927,-126 382.927,-126 379.927,-122 245.073,-122 245.073,-86 406.927,-86 406.927,-122"/>
<text text-anchor="middle" x="326" y="-99.8" font-family="Times,serif" font-size="14.00" fill="#000000">BetCenterRoutingModule</text>
</g>
<!-- BetCenterRoutingModule&#45;&gt;BetCenterModule -->
<g id="edge2" class="edge">
<title>BetCenterRoutingModule&#45;&gt;BetCenterModule</title>
<path fill="none" stroke="#000000" d="M279.2206,-122.1061C279.2206,-122.1061 279.2206,-140.991 279.2206,-140.991"/>
<polygon fill="#000000" stroke="#000000" points="275.7206,-140.9909 279.2206,-150.991 282.7206,-140.991 275.7206,-140.9909"/>
</g>
<!-- CoreModule -->
<g id="node4" class="node">
<title>CoreModule</title>
<polygon fill="#8dd3c7" stroke="#000000" points="227.2619,-122 224.2619,-126 203.2619,-126 200.2619,-122 140.7381,-122 140.7381,-86 227.2619,-86 227.2619,-122"/>
<text text-anchor="middle" x="184" y="-99.8" font-family="Times,serif" font-size="14.00" fill="#000000">CoreModule</text>
</g>
<!-- CoreModule&#45;&gt;BetCenterModule -->
<g id="edge3" class="edge">
<title>CoreModule&#45;&gt;BetCenterModule</title>
<path fill="none" stroke="#000000" d="M212.1133,-122.1061C212.1133,-122.1061 212.1133,-140.991 212.1133,-140.991"/>
<polygon fill="#000000" stroke="#000000" points="208.6133,-140.9909 212.1133,-150.991 215.6133,-140.991 208.6133,-140.9909"/>
</g>
<!-- SharedModule -->
<g id="node5" class="node">
<title>SharedModule</title>
<polygon fill="#8dd3c7" stroke="#000000" points="122.4231,-122 119.4231,-126 98.4231,-126 95.4231,-122 23.5769,-122 23.5769,-86 122.4231,-86 122.4231,-122"/>
<text text-anchor="middle" x="73" y="-99.8" font-family="Times,serif" font-size="14.00" fill="#000000">SharedModule</text>
</g>
<!-- SharedModule&#45;&gt;BetCenterModule -->
<g id="edge4" class="edge">
<title>SharedModule&#45;&gt;BetCenterModule</title>
<path fill="none" stroke="#000000" d="M73,-122.1061C73,-141.3391 73,-169 73,-169 73,-169 186.6631,-169 186.6631,-169"/>
<polygon fill="#000000" stroke="#000000" points="186.6631,-172.5001 196.6631,-169 186.663,-165.5001 186.6631,-172.5001"/>
</g>
</g>
</svg>
